<svg width="3409" height="492" viewBox="0 0 3409 492" fill="none" xmlns="http://www.w3.org/2000/svg">
<path fill-rule="evenodd" clip-rule="evenodd" d="M705.177 54.85L387.688 202.487C387.411 202.575 387.204 202.632 387.067 202.654C379.401 201.889 376.988 197.532 380.241 191.161L692.078 33.8804L705.177 54.85Z" fill="#CFC082"/>
<path d="M391.366 11.1346L440.255 161.601H598.465L470.471 254.595L519.36 405.061L391.366 312.068L263.371 405.061L312.261 254.595L184.266 161.601H342.476L391.366 11.1346Z" fill="#FFD52A"/>
<path d="M380.231 435.514L331.341 285.048H173.131L301.126 192.054L252.236 41.588L380.231 134.581L508.225 41.588L459.336 192.054L587.33 285.048H429.12L380.231 435.514Z" fill="#FFD52A"/>
<circle cx="386.417" cy="223.943" r="132.386" fill="#FFD52A"/>
<circle cx="386.148" cy="229.202" r="120.857" fill="#111411"/>
<circle cx="386.148" cy="229.202" r="104.187" fill="#F9F6F6"/>
<circle cx="385.732" cy="233.786" r="60.4285" fill="#FFAC8E"/>
<path d="M364.955 265.043C358.167 242.244 356.809 200.989 405.687 218.354" stroke="#FFCEBD" stroke-width="4" stroke-linecap="round"/>
<path d="M386.982 214.199C373.773 212.044 355.281 201.025 386.982 174.191" stroke="#FFCEBD" stroke-width="4" stroke-linecap="round"/>
<path d="M344.89 277.184C368.188 260.913 415.308 239.54 417.404 284.213" stroke="#FFCEBD" stroke-width="4" stroke-linecap="round"/>
<path d="M402.413 258.647C399.358 233.916 402.913 190.007 441.576 212.226" stroke="#FFCEBD" stroke-width="4" stroke-linecap="round"/>
<path d="M327.387 220.606C332.432 218.464 347.33 215.821 366.561 222.391" stroke="#FFCEBD" stroke-width="4" stroke-linecap="round"/>
<path fill-rule="evenodd" clip-rule="evenodd" d="M732.757 109.019L398.455 221.444C398.167 221.502 397.952 221.538 397.812 221.544C390.264 219.971 388.385 215.399 392.399 209.435L722.238 86.857L732.757 109.019Z" fill="#CFC082"/>
<path d="M382.072 222.706C296.017 222.705 148.669 466.04 0.0834961 491.19H800.589C658.194 447.176 477.602 222.706 382.072 222.706Z" fill="url(#paint0_linear_52_2)" stroke="url(#paint1_linear_52_2)"/>
<path d="M271.971 291.992L194.023 368.083L169.278 399.634L220.624 363.753V395.922L253.412 355.711L246.607 390.973L275.682 373.651L271.971 416.336L312.8 377.363L297.953 436.751L318.368 399.634V420.667L345.587 371.177L364.765 416.336L370.951 395.922L380.231 429.328L395.696 355.711L413.637 402.727L420.441 390.973L431.577 424.379L436.526 363.753L455.085 412.625L469.313 371.177L484.16 402.727L488.491 386.024L499.626 402.727V339.008L511.998 386.024L518.803 371.177L533.032 390.973L535.506 335.915L544.786 368.083L555.302 339.008L602.318 363.753L555.302 325.398L503.338 284.569C485.026 267.742 447.867 245.801 431.577 236.934L413.637 228.892C411.987 227.861 405.347 225.304 391.985 223.324C378.622 221.345 365.796 224.974 361.053 227.036C355.692 228.892 341.876 234.831 329.503 243.739C317.131 252.647 304.964 262.71 300.428 266.628L271.971 291.992Z" fill="#F6F6F6" stroke="#D9D9D9"/>
<path d="M3155.23 471.51V265.935C3155.23 257.582 3159.25 253.405 3167.3 253.405C3170.47 253.405 3173.12 254.488 3175.23 256.654C3177.56 258.819 3178.73 261.913 3178.73 265.935V290.529C3185.5 278.773 3193.75 268.719 3203.49 260.366C3213.23 252.013 3222.86 247.837 3232.38 247.837C3258.42 247.837 3276.94 261.603 3287.94 289.137C3294.51 275.834 3302.87 265.625 3313.03 258.51C3323.4 251.394 3333.87 247.837 3344.46 247.837C3364.14 247.837 3379.7 256.035 3391.13 272.431C3402.56 288.828 3408.27 311.566 3408.27 340.647C3408.27 343.431 3408.17 358.745 3407.96 386.588C3407.96 414.122 3407.96 443.048 3407.96 473.366C3407.96 477.388 3406.79 480.636 3404.46 483.111C3402.14 485.277 3399.49 486.36 3396.53 486.36C3388.7 486.36 3384.78 482.028 3384.78 473.366V344.824C3384.78 303.059 3371.76 282.176 3345.73 282.176C3341.92 282.176 3338 282.795 3333.98 284.033C3330.17 284.961 3325.94 286.972 3321.28 290.065C3316.84 293.159 3312.81 297.026 3309.22 301.667C3305.62 305.998 3302.65 312.031 3300.33 319.765C3298 327.499 3296.83 336.161 3296.83 345.752C3296.83 357.817 3296.73 373.131 3296.52 391.693C3296.52 410.255 3296.52 437.479 3296.52 473.366C3296.52 477.388 3295.25 480.636 3292.71 483.111C3290.38 485.277 3287.63 486.36 3284.45 486.36C3277.04 486.36 3273.34 482.028 3273.34 473.366V344.824C3273.34 322.24 3269.63 306.153 3262.23 296.562C3254.82 286.972 3245.29 282.176 3233.65 282.176C3222.43 282.176 3211.53 288.364 3200.95 300.739C3190.58 313.113 3183.17 327.499 3178.73 343.895V471.51C3178.73 475.532 3177.56 478.78 3175.23 481.255C3172.9 483.421 3170.15 484.503 3166.98 484.503C3159.15 484.503 3155.23 480.172 3155.23 471.51Z" fill="white"/>
<path d="M2941.45 400.046C2941.45 358.59 2952.56 322.858 2974.78 292.85C2997.01 262.841 3022.2 247.837 3050.35 247.837C3069.61 247.837 3086.01 258.51 3099.56 279.856C3113.11 301.203 3119.88 325.488 3119.88 352.712L3119.56 474.294C3119.56 478.316 3118.19 481.564 3115.43 484.039C3112.89 486.205 3110.04 487.288 3106.86 487.288C3099.88 487.288 3096.38 482.957 3096.38 474.294V395.869C3079.24 428.353 3062.84 451.865 3047.17 466.405C3031.72 480.946 3015.74 488.216 2999.23 488.216C2983.99 488.216 2970.55 479.244 2958.91 461.301C2947.27 443.048 2941.45 422.63 2941.45 400.046ZM2964.31 400.974C2964.31 418.608 2968.54 432.065 2977.01 441.347C2985.47 450.318 2994.47 454.804 3003.99 454.804C3015 454.804 3027.59 446.915 3041.78 431.137C3055.96 415.05 3067.7 397.262 3077.02 377.771C3086.54 357.972 3091.3 342.503 3091.3 331.366C3091.3 322.085 3089.4 313.887 3085.59 306.771C3081.99 299.346 3077.44 293.932 3071.94 290.529C3066.65 287.126 3061.78 284.651 3057.33 283.105C3052.89 281.248 3049.18 280.32 3046.22 280.32C3025.48 280.32 3006.64 292.54 2989.71 316.98C2972.77 341.111 2964.31 369.109 2964.31 400.974Z" fill="white"/>
<path d="M2752.31 361.994C2752.31 342.194 2755.28 324.56 2761.2 309.092C2767.13 293.623 2774.96 281.403 2784.7 272.431C2794.43 263.46 2804.91 256.808 2816.13 252.477C2827.35 247.837 2838.78 245.516 2850.42 245.516C2871.16 245.516 2887.25 252.168 2898.68 265.471C2910.11 278.464 2915.82 294.551 2915.82 313.732C2915.82 334.46 2909.16 352.094 2895.82 366.634C2882.49 381.174 2863.54 388.445 2838.99 388.445C2816.98 388.445 2796.02 383.804 2776.13 374.523C2778.45 397.416 2785.76 416.597 2798.03 432.066C2810.31 447.534 2825.44 455.268 2843.43 455.268C2852.96 455.268 2862.8 453.103 2872.96 448.771C2883.33 444.44 2891.48 438.253 2897.41 430.209C2898.26 427.734 2899.95 426.497 2902.49 426.497C2905.45 426.497 2908.63 428.508 2912.01 432.53C2915.4 436.242 2917.09 440.109 2917.09 444.131C2911.8 459.909 2901.43 471.51 2885.98 478.935C2870.74 486.05 2855.92 489.608 2841.53 489.608C2815.49 489.608 2794.12 477.079 2777.4 452.02C2760.67 426.961 2752.31 396.952 2752.31 361.994ZM2777.4 338.791C2793.27 349 2812.95 354.105 2836.45 354.105C2854.86 354.105 2868.83 349.928 2878.36 341.575C2887.88 332.913 2892.65 323.323 2892.65 312.804C2892.65 303.523 2888.62 295.789 2880.58 289.601C2872.75 283.105 2861 279.856 2845.34 279.856C2828.41 279.856 2814.22 285.425 2802.79 296.562C2791.58 307.39 2783.11 321.466 2777.4 338.791Z" fill="white"/>
<path d="M2549.7 471.51V148.529C2549.7 140.486 2553.72 136.464 2561.77 136.464C2569.39 136.464 2573.2 140.486 2573.2 148.529V275.216C2586.32 256.963 2601.66 247.837 2619.23 247.837C2647.38 247.837 2672.57 262.841 2694.8 292.85C2717.02 322.858 2728.13 358.59 2728.13 400.046C2728.13 422.63 2722.31 443.048 2710.67 461.301C2699.03 479.244 2685.59 488.216 2670.35 488.216C2653.84 488.216 2637.75 480.946 2622.09 466.405C2606.64 451.865 2590.34 428.353 2573.2 395.869V471.51C2573.2 475.532 2572.03 478.78 2569.7 481.255C2567.38 483.421 2564.62 484.503 2561.45 484.503C2553.62 484.503 2549.7 480.172 2549.7 471.51ZM2578.28 331.366C2578.28 342.503 2582.93 357.972 2592.25 377.771C2601.77 397.262 2613.62 415.05 2627.81 431.137C2641.99 446.915 2654.58 454.804 2665.59 454.804C2675.11 454.804 2684.11 450.318 2692.57 441.347C2701.04 432.065 2705.27 418.608 2705.27 400.974C2705.27 369.109 2696.81 341.111 2679.87 316.98C2662.94 292.54 2644.1 280.32 2623.36 280.32C2620.4 280.32 2616.69 281.248 2612.25 283.105C2607.8 284.651 2602.83 287.126 2597.33 290.529C2592.03 293.932 2587.48 299.346 2583.67 306.771C2580.07 313.887 2578.28 322.085 2578.28 331.366Z" fill="white"/>
<path d="M2336.07 472.438V265.007C2336.07 260.985 2337.13 257.891 2339.25 255.726C2341.58 253.56 2344.33 252.477 2347.5 252.477C2355.55 252.477 2359.57 256.654 2359.57 265.007V301.667C2370.15 284.961 2382.96 271.813 2397.98 262.222C2413.01 252.322 2428.25 247.373 2443.7 247.373C2463.6 247.373 2480.22 256.499 2493.55 274.752C2507.1 292.695 2513.87 316.207 2513.87 345.288C2513.87 348.072 2513.77 362.303 2513.55 387.98C2513.55 413.349 2513.55 441.192 2513.55 471.51C2513.55 475.532 2512.39 478.78 2510.06 481.255C2507.73 483.421 2504.98 484.503 2501.81 484.503C2493.97 484.503 2490.06 480.172 2490.06 471.51V349.464C2490.06 327.499 2484.66 310.638 2473.87 298.882C2463.28 287.126 2452.28 281.248 2440.85 281.248C2425.4 281.248 2409.52 288.828 2393.22 303.987C2377.14 318.837 2365.92 337.708 2359.57 360.601V472.438C2359.57 480.791 2355.55 484.968 2347.5 484.968C2344.33 484.968 2341.58 483.885 2339.25 481.719C2337.13 479.554 2336.07 476.46 2336.07 472.438Z" fill="white"/>
<path d="M2121.15 389.837C2121.15 387.052 2121.15 373.285 2121.15 348.536C2121.37 323.477 2121.47 295.789 2121.47 265.471C2121.47 261.449 2122.64 258.355 2124.96 256.189C2127.29 253.715 2130.04 252.477 2133.22 252.477C2141.05 252.477 2144.97 256.808 2144.97 265.471V385.66C2144.97 407.625 2150.26 424.795 2160.84 437.17C2171.64 449.235 2182.75 455.268 2194.18 455.268C2208.57 455.268 2223.92 447.689 2240.21 432.53C2256.72 417.061 2268.15 397.88 2274.5 374.987V265.006C2274.5 256.654 2278.53 252.477 2286.57 252.477C2289.74 252.477 2292.39 253.56 2294.51 255.725C2296.83 257.891 2298 260.985 2298 265.006V471.974C2298 475.996 2296.83 479.089 2294.51 481.255C2292.39 483.421 2289.74 484.503 2286.57 484.503C2278.53 484.503 2274.5 480.327 2274.5 471.974V433.922C2263.92 450.937 2251.22 464.394 2236.4 474.294C2221.8 484.194 2206.77 489.144 2191.32 489.144C2171.42 489.144 2154.7 479.863 2141.16 461.301C2127.82 442.739 2121.15 418.917 2121.15 389.837Z" fill="white"/>
<path d="M1919.54 425.569C1919.54 420.928 1920.71 416.133 1923.04 411.183C1925.58 406.233 1928.43 403.758 1931.61 403.758C1932.67 403.758 1933.41 404.068 1933.83 404.687C1941.24 416.133 1952.35 426.652 1967.17 436.242C1982.2 445.523 1996.27 450.164 2009.39 450.164C2047.28 450.164 2066.23 431.756 2066.23 394.941C2066.23 382.567 2063.58 372.512 2058.29 364.778C2053.21 356.734 2046.44 350.702 2037.97 346.68C2029.71 342.658 2020.51 339.255 2010.35 336.471C2000.4 333.687 1990.35 330.438 1980.19 326.726C1970.03 322.704 1960.71 317.754 1952.25 311.876C1943.99 305.998 1937.22 297.026 1931.93 284.961C1926.85 272.896 1924.31 258.201 1924.31 240.876C1924.31 214.889 1932.14 194.935 1947.8 181.013C1963.46 166.782 1982.2 159.667 2004 159.667C2020.93 159.667 2036.81 163.843 2051.62 172.196C2066.65 180.24 2077.66 191.686 2084.64 206.536C2084.85 207.155 2084.96 207.928 2084.96 208.856C2084.96 212.569 2083.16 216.436 2079.56 220.458C2076.17 224.17 2073.11 226.026 2070.35 226.026C2069.93 226.026 2068.66 225.253 2066.54 223.706C2049.82 203.597 2029.08 193.543 2004.31 193.543C1989.29 193.543 1976.06 197.719 1964.63 206.072C1953.2 214.116 1947.48 226.49 1947.48 243.196C1947.48 254.643 1950.02 264.079 1955.1 271.504C1960.39 278.928 1967.17 284.497 1975.42 288.209C1983.89 291.612 1993.2 294.706 2003.36 297.49C2013.52 299.965 2023.68 303.214 2033.84 307.236C2044 311.257 2053.21 316.517 2061.46 323.013C2069.93 329.201 2076.7 338.636 2081.78 351.321C2087.08 364.005 2089.72 379.473 2089.72 397.726C2089.72 455.268 2063.69 484.04 2011.62 484.04C1994.68 484.04 1978.07 479.708 1961.77 471.046C1945.47 462.074 1932.14 449.854 1921.77 434.386C1920.28 432.22 1919.54 429.281 1919.54 425.569Z" fill="white"/>
<path d="M1775.8 361.065C1775.8 356.425 1776.55 352.558 1778.03 349.464C1779.51 346.061 1781.62 344.36 1784.38 344.36H1878.04C1880.79 344.36 1882.91 346.061 1884.39 349.464C1886.08 352.867 1886.93 356.889 1886.93 361.53C1886.93 372.976 1883.96 378.699 1878.04 378.699H1784.38C1778.66 378.699 1775.8 372.821 1775.8 361.065Z" fill="white"/>
<path d="M1714.1 471.51V265.007C1714.1 256.654 1718.13 252.477 1726.17 252.477C1729.34 252.477 1731.99 253.56 1734.11 255.725C1736.43 257.891 1737.6 260.985 1737.6 265.007V471.51C1737.6 475.532 1736.43 478.78 1734.11 481.255C1731.78 483.421 1729.03 484.503 1725.85 484.503C1718.02 484.503 1714.1 480.172 1714.1 471.51ZM1714.1 193.078V184.725C1714.1 176.372 1718.13 172.196 1726.17 172.196C1729.34 172.196 1731.99 173.279 1734.11 175.444C1736.43 177.61 1737.6 180.704 1737.6 184.725V193.078C1737.6 197.1 1736.43 200.349 1734.11 202.823C1731.78 204.989 1729.03 206.072 1725.85 206.072C1718.02 206.072 1714.1 201.741 1714.1 193.078Z" fill="white"/>
<path d="M1500.48 472.438V148.529C1500.48 144.508 1501.53 141.414 1503.65 139.248C1505.98 137.083 1508.73 136 1511.91 136C1519.95 136 1523.97 140.176 1523.97 148.529V302.595C1534.34 286.508 1547.04 273.824 1562.07 264.543C1577.1 255.262 1592.44 250.621 1608.11 250.621C1628.21 250.621 1644.94 259.283 1658.27 276.608C1671.61 293.623 1678.27 316.517 1678.27 345.288C1678.27 348.072 1678.17 362.303 1677.96 387.981C1677.96 413.349 1677.96 441.192 1677.96 471.51C1677.96 475.532 1676.79 478.78 1674.46 481.255C1672.14 483.421 1669.38 484.504 1666.21 484.504C1658.38 484.504 1654.46 480.172 1654.46 471.51V349.464C1654.46 334.305 1651.5 321.621 1645.57 311.412C1639.86 300.893 1633.51 293.778 1626.52 290.066C1619.54 286.353 1612.45 284.497 1605.25 284.497C1589.59 284.497 1573.61 291.612 1557.31 305.843C1541.22 320.074 1530.11 338.327 1523.97 360.602V472.438C1523.97 480.791 1519.95 484.968 1511.91 484.968C1508.73 484.968 1505.98 483.885 1503.65 481.719C1501.53 479.554 1500.48 476.46 1500.48 472.438Z" fill="white"/>
<path d="M1309.95 440.418C1309.95 436.396 1311.11 432.065 1313.44 427.425C1315.98 422.784 1318.84 419.845 1322.01 418.608C1323.49 418.608 1324.23 418.917 1324.23 419.536C1331.01 430.364 1340.74 438.871 1353.44 445.059C1366.14 450.937 1376.09 454.34 1383.29 455.268C1390.7 456.196 1397.57 456.66 1403.92 456.66C1431.44 456.66 1445.2 444.44 1445.2 420C1445.2 411.647 1443.08 404.996 1438.85 400.046C1434.83 394.786 1429.22 391.229 1422.02 389.372C1415.04 387.516 1407.95 386.279 1400.75 385.66C1393.55 385.041 1385.72 384.577 1377.25 384.268C1368.79 383.649 1362.33 382.721 1357.89 381.484C1345.82 378.081 1335.13 370.965 1325.82 360.137C1316.51 349 1311.85 336.006 1311.85 321.157C1311.85 297.645 1319.89 279.701 1335.98 267.327C1352.28 254.643 1370.16 248.3 1389.64 248.3C1402.76 248.3 1416.84 251.704 1431.86 258.51C1446.89 265.006 1458.11 275.216 1465.52 289.137C1465.73 289.756 1465.84 290.529 1465.84 291.457C1465.84 295.479 1464.57 300.274 1462.03 305.843C1459.49 311.102 1457.05 313.732 1454.72 313.732C1452.61 313.732 1450.49 311.257 1448.37 306.307C1438.21 290.529 1418 282.64 1387.73 282.64C1375.24 282.64 1363.39 285.734 1352.17 291.921C1340.95 298.109 1335.35 307.235 1335.35 319.301C1335.35 329.51 1340.21 337.244 1349.95 342.503C1359.69 347.453 1370.06 349.928 1381.06 349.928C1388.9 349.928 1395.46 350.083 1400.75 350.392C1406.04 350.701 1412.5 351.63 1420.12 353.176C1427.74 354.414 1434.09 356.734 1439.17 360.137C1444.25 363.231 1449.22 367.407 1454.09 372.667C1458.96 377.616 1462.56 384.423 1464.88 393.085C1467.42 401.438 1468.69 411.338 1468.69 422.784C1468.69 438.562 1465.31 451.865 1458.53 462.693C1451.97 473.211 1444.35 480.481 1435.67 484.503C1427.21 488.834 1418.21 491 1408.69 491C1364.03 491 1331.85 477.078 1312.17 449.235C1310.69 447.07 1309.95 444.131 1309.95 440.418Z" fill="white"/>
<path d="M1101.69 389.837C1101.69 387.052 1101.69 373.285 1101.69 348.536C1101.91 323.477 1102.01 295.789 1102.01 265.471C1102.01 261.449 1103.17 258.355 1105.5 256.189C1107.83 253.715 1110.58 252.477 1113.76 252.477C1121.59 252.477 1125.51 256.808 1125.51 265.471V385.66C1125.51 407.625 1130.8 424.795 1141.38 437.17C1152.18 449.235 1163.29 455.268 1174.72 455.268C1189.11 455.268 1204.46 447.689 1220.75 432.53C1237.26 417.061 1248.69 397.88 1255.04 374.987V265.006C1255.04 256.654 1259.07 252.477 1267.11 252.477C1270.28 252.477 1272.93 253.56 1275.05 255.725C1277.37 257.891 1278.54 260.985 1278.54 265.006V471.974C1278.54 475.996 1277.37 479.089 1275.05 481.255C1272.93 483.421 1270.28 484.503 1267.11 484.503C1259.07 484.503 1255.04 480.327 1255.04 471.974V433.922C1244.46 450.937 1231.76 464.394 1216.94 474.294C1202.34 484.194 1187.31 489.144 1171.86 489.144C1151.96 489.144 1135.24 479.863 1121.7 461.301C1108.36 442.739 1101.69 418.917 1101.69 389.837Z" fill="white"/>
<path d="M900.083 425.569C900.083 420.928 901.248 416.133 903.576 411.183C906.116 406.233 908.973 403.758 912.148 403.758C913.207 403.758 913.947 404.068 914.371 404.687C921.779 416.133 932.891 426.652 947.708 436.242C962.736 445.523 976.812 450.164 989.935 450.164C1027.82 450.164 1046.77 431.756 1046.77 394.941C1046.77 382.567 1044.12 372.512 1038.83 364.778C1033.75 356.734 1026.98 350.702 1018.51 346.68C1010.25 342.658 1001.05 339.255 990.887 336.471C980.939 333.687 970.885 330.438 960.725 326.726C950.565 322.704 941.252 317.754 932.786 311.876C924.531 305.998 917.757 297.026 912.466 284.961C907.386 272.896 904.846 258.201 904.846 240.876C904.846 214.889 912.678 194.935 928.341 181.013C944.004 166.782 962.736 159.667 984.537 159.667C1001.47 159.667 1017.35 163.843 1032.16 172.196C1047.19 180.24 1058.2 191.686 1065.18 206.536C1065.39 207.155 1065.5 207.928 1065.5 208.856C1065.5 212.569 1063.7 216.436 1060.1 220.458C1056.71 224.17 1053.65 226.026 1050.89 226.026C1050.47 226.026 1049.2 225.253 1047.08 223.706C1030.36 203.597 1009.62 193.543 984.855 193.543C969.827 193.543 956.598 197.719 945.168 206.072C933.738 214.116 928.023 226.49 928.023 243.196C928.023 254.643 930.563 264.079 935.643 271.504C940.935 278.928 947.708 284.497 955.963 288.209C964.429 291.612 973.743 294.706 983.902 297.49C994.062 299.965 1004.22 303.214 1014.38 307.236C1024.54 311.257 1033.75 316.517 1042 323.013C1050.47 329.201 1057.24 338.636 1062.32 351.321C1067.62 364.005 1070.26 379.473 1070.26 397.726C1070.26 455.268 1044.23 484.04 992.157 484.04C975.224 484.04 958.609 479.708 942.31 471.046C926.012 462.074 912.678 449.854 902.306 434.386C900.824 432.22 900.083 429.281 900.083 425.569Z" fill="white"/>
<defs>
<linearGradient id="paint0_linear_52_2" x1="387.025" y1="481.759" x2="390.579" y2="222.487" gradientUnits="userSpaceOnUse">
<stop stop-color="#111411"/>
<stop offset="0.282912" stop-color="#242925"/>
<stop offset="0.367775" stop-color="#313832"/>
<stop offset="1" stop-color="white"/>
</linearGradient>
<linearGradient id="paint1_linear_52_2" x1="400.336" y1="222.706" x2="400.336" y2="491.19" gradientUnits="userSpaceOnUse">
<stop stop-color="#F8F5F5"/>
<stop offset="0.860577" stop-color="#303030"/>
</linearGradient>
</defs>
</svg>
