<svg width="255" height="38" viewBox="0 0 255 38" fill="none" xmlns="http://www.w3.org/2000/svg">
<path d="M52.6708 4.09048L29.0074 15.0934C28.9785 15.103 28.9587 15.1126 28.9459 15.1147C28.374 15.0576 28.1928 14.7316 28.4358 14.2562L51.6937 2.52697L52.6708 4.09048Z" fill="#CFC082"/>
<path d="M29.2663 0.830566L32.9126 12.0527H44.7123L35.1661 18.9884L38.8124 30.2105L29.2663 23.2749L19.7201 30.2105L23.3664 18.9884L13.8203 12.0527H25.62L29.2663 0.830566Z" fill="#FFD52A"/>
<path d="M28.4357 32.4817L24.7894 21.2595H12.9898L22.5359 14.3239L18.8896 3.10173L28.4357 10.0374L37.9819 3.10173L34.3356 14.3239L43.8817 21.2595H32.082L28.4357 32.4817Z" fill="#FFD52A"/>
<ellipse cx="28.8972" cy="16.7023" rx="9.87371" ry="9.8737" fill="#FFD52A"/>
<ellipse cx="28.8771" cy="17.0946" rx="9.01382" ry="9.0138" fill="#111411"/>
<ellipse cx="28.8771" cy="17.0945" rx="7.77053" ry="7.77052" fill="#F9F6F6"/>
<ellipse cx="28.846" cy="17.4366" rx="4.50691" ry="4.5069" fill="#FFAC8E"/>
<path d="M27.2965 19.7674C26.7902 18.067 26.6889 14.9901 30.3343 16.2852" stroke="#FFCEBD" stroke-width="0.5" stroke-linecap="round"/>
<path d="M28.9393 15.9756C27.9541 15.8148 26.575 14.993 28.9393 12.9917" stroke="#FFCEBD" stroke-width="0.5" stroke-linecap="round"/>
<path d="M25.8 20.6733C27.5376 19.4597 31.0519 17.8657 31.2083 21.1975" stroke="#FFCEBD" stroke-width="0.5" stroke-linecap="round"/>
<path d="M30.0902 19.2904C29.8623 17.4458 30.1275 14.171 33.011 15.8281" stroke="#FFCEBD" stroke-width="0.5" stroke-linecap="round"/>
<path d="M24.4945 16.4533C24.8708 16.2935 25.9819 16.0965 27.4162 16.5865" stroke="#FFCEBD" stroke-width="0.5" stroke-linecap="round"/>
<path d="M54.7285 8.13115L29.8188 16.5073C29.7851 16.5149 29.7618 16.5227 29.7476 16.5234C29.1848 16.4061 29.0432 16.0647 29.3424 15.62L53.9438 6.47827L54.7285 8.13115Z" fill="#CFC082"/>
<path d="M28.5731 16.6101C22.1549 16.6101 11.1653 34.7585 0.0834351 36.6343H59.7871C49.167 33.3517 35.6979 16.6101 28.5731 16.6101Z" fill="url(#paint0_linear_38_3)" stroke="url(#paint1_linear_38_3)"/>
<path d="M20.3615 21.7776L14.548 27.4527L12.7024 29.8057L16.5319 27.1297V29.5289L18.9773 26.5299L18.4698 29.1598L20.6383 27.8679L20.3615 31.0515L23.4066 28.1448L22.2993 32.5741L23.8219 29.8057V31.3745L25.852 27.6834L27.2823 31.0515L27.7437 29.5289L28.4358 32.0204L29.5892 26.5299L30.9273 30.0364L31.4348 29.1598L32.2653 31.6513L32.6344 27.1297L34.0186 30.7747L35.0797 27.6834L36.1871 30.0364L36.5101 28.7907L37.3406 30.0364V25.2841L38.2633 28.7907L38.7709 27.6834L39.832 29.1598L40.0166 25.0535L40.7087 27.4527L41.493 25.2841L44.9996 27.1297L41.493 24.2691L37.6174 21.2239C36.2517 19.969 33.4803 18.3326 32.2653 17.6713L30.9273 17.0714C30.8042 16.9946 30.309 16.8038 29.3124 16.6562C28.3158 16.5086 27.3592 16.7792 27.0055 16.933C26.6056 17.0715 25.5751 17.5144 24.6524 18.1788C23.7296 18.8432 22.8222 19.5937 22.4838 19.8859L20.3615 21.7776Z" fill="#F6F6F6" stroke="#D9D9D9"/>
<path d="M235.402 35.1665V19.8342C235.402 19.2112 235.702 18.8997 236.302 18.8997C236.539 18.8997 236.736 18.9805 236.894 19.142C237.068 19.3035 237.154 19.5342 237.154 19.8342V21.6685C237.66 20.7917 238.275 20.0418 239.001 19.4189C239.728 18.7959 240.446 18.4844 241.156 18.4844C243.098 18.4844 244.479 19.5111 245.3 21.5647C245.79 20.5725 246.413 19.8111 247.171 19.2804C247.944 18.7497 248.726 18.4844 249.515 18.4844C250.983 18.4844 252.144 19.0958 252.996 20.3187C253.849 21.5416 254.275 23.2375 254.275 25.4064C254.275 25.6141 254.267 26.7562 254.251 28.8328C254.251 30.8863 254.251 33.0437 254.251 35.3049C254.251 35.6049 254.164 35.8471 253.991 36.0317C253.817 36.1932 253.62 36.274 253.399 36.274C252.815 36.274 252.523 35.951 252.523 35.3049V25.7179C252.523 22.603 251.552 21.0455 249.61 21.0455C249.326 21.0455 249.034 21.0917 248.734 21.184C248.45 21.2532 248.134 21.4032 247.787 21.6339C247.455 21.8646 247.155 22.1531 246.887 22.4992C246.618 22.8222 246.397 23.2721 246.224 23.8489C246.05 24.4258 245.963 25.0718 245.963 25.7871C245.963 26.687 245.955 27.8291 245.94 29.2135C245.94 30.5979 245.94 32.6284 245.94 35.3049C245.94 35.6049 245.845 35.8471 245.655 36.0317C245.482 36.1932 245.277 36.274 245.04 36.274C244.487 36.274 244.211 35.951 244.211 35.3049V25.7179C244.211 24.0335 243.935 22.8337 243.382 22.1184C242.83 21.4032 242.119 21.0455 241.251 21.0455C240.414 21.0455 239.601 21.507 238.812 22.4299C238.038 23.3529 237.486 24.4258 237.154 25.6487V35.1665C237.154 35.4664 237.068 35.7087 236.894 35.8933C236.72 36.0548 236.515 36.1355 236.278 36.1355C235.694 36.1355 235.402 35.8125 235.402 35.1665Z" fill="#303030"/>
<path d="M219.458 29.8365C219.458 26.7447 220.286 24.0797 221.944 21.8416C223.602 19.6034 225.48 18.4844 227.58 18.4844C229.016 18.4844 230.24 19.2804 231.25 20.8725C232.26 22.4645 232.766 24.2758 232.766 26.3063L232.742 35.3741C232.742 35.6741 232.639 35.9164 232.434 36.1009C232.245 36.2625 232.032 36.3432 231.795 36.3432C231.274 36.3432 231.013 36.0202 231.013 35.3741V29.525C229.735 31.9477 228.511 33.7013 227.343 34.7858C226.191 35.8702 224.999 36.4124 223.767 36.4124C222.631 36.4124 221.628 35.7433 220.76 34.405C219.892 33.0437 219.458 31.5209 219.458 29.8365ZM221.163 29.9057C221.163 31.2209 221.478 32.2246 222.11 32.9168C222.741 33.5859 223.412 33.9205 224.122 33.9205C224.943 33.9205 225.883 33.3321 226.94 32.1554C227.998 30.9556 228.874 29.6288 229.569 28.1752C230.279 26.6985 230.634 25.5448 230.634 24.7142C230.634 24.022 230.492 23.4106 230.208 22.8799C229.94 22.3261 229.6 21.9223 229.19 21.6685C228.795 21.4147 228.432 21.2301 228.101 21.1147C227.769 20.9763 227.493 20.9071 227.272 20.9071C225.725 20.9071 224.32 21.8185 223.057 23.6413C221.794 25.441 221.163 27.5292 221.163 29.9057Z" fill="#303030"/>
<path d="M205.352 26.9987C205.352 25.522 205.573 24.2068 206.015 23.0531C206.457 21.8994 207.041 20.988 207.767 20.3189C208.493 19.6498 209.275 19.1537 210.111 18.8307C210.948 18.4846 211.8 18.3115 212.669 18.3115C214.216 18.3115 215.415 18.8076 216.268 19.7998C217.12 20.7688 217.547 21.9687 217.547 23.3992C217.547 24.9451 217.049 26.2603 216.055 27.3448C215.06 28.4292 213.647 28.9714 211.816 28.9714C210.174 28.9714 208.611 28.6253 207.128 27.9331C207.301 29.6406 207.846 31.0711 208.761 32.2248C209.677 33.3785 210.806 33.9553 212.148 33.9553C212.858 33.9553 213.592 33.7938 214.35 33.4708C215.123 33.1477 215.731 32.6863 216.173 32.0864C216.236 31.9018 216.363 31.8095 216.552 31.8095C216.773 31.8095 217.01 31.9595 217.262 32.2594C217.515 32.5363 217.641 32.8247 217.641 33.1247C217.247 34.3014 216.473 35.1667 215.321 35.7204C214.184 36.2511 213.079 36.5165 212.006 36.5165C210.064 36.5165 208.469 35.582 207.222 33.713C205.975 31.8441 205.352 29.606 205.352 26.9987ZM207.222 25.2682C208.406 26.0296 209.874 26.4103 211.627 26.4103C213 26.4103 214.042 26.0988 214.752 25.4758C215.463 24.8298 215.818 24.1145 215.818 23.33C215.818 22.6378 215.518 22.061 214.918 21.5995C214.334 21.1149 213.458 20.8727 212.29 20.8727C211.027 20.8727 209.969 21.288 209.117 22.1186C208.28 22.9262 207.649 23.9761 207.222 25.2682Z" fill="#303030"/>
<path d="M190.24 35.1665V11.0778C190.24 10.4779 190.54 10.178 191.14 10.178C191.708 10.178 191.993 10.4779 191.993 11.0778V20.5264C192.971 19.1651 194.116 18.4844 195.426 18.4844C197.526 18.4844 199.404 19.6035 201.062 21.8416C202.719 24.0797 203.548 26.7447 203.548 29.8365C203.548 31.5209 203.114 33.0437 202.246 34.4051C201.378 35.7433 200.375 36.4125 199.239 36.4125C198.007 36.4125 196.807 35.8702 195.639 34.7858C194.487 33.7013 193.271 31.9478 191.993 29.5251V35.1665C191.993 35.4665 191.906 35.7087 191.732 35.8933C191.558 36.0548 191.353 36.1356 191.116 36.1356C190.532 36.1356 190.24 35.8126 190.24 35.1665ZM192.371 24.7142C192.371 25.5449 192.719 26.6986 193.413 28.1753C194.124 29.6289 195.008 30.9556 196.065 32.1554C197.123 33.3322 198.062 33.9205 198.883 33.9205C199.594 33.9205 200.265 33.586 200.896 32.9168C201.528 32.2246 201.843 31.2209 201.843 29.9058C201.843 27.5292 201.212 25.4411 199.949 23.6413C198.686 21.8185 197.281 20.9071 195.734 20.9071C195.513 20.9071 195.237 20.9763 194.905 21.1148C194.574 21.2302 194.203 21.4147 193.792 21.6685C193.398 21.9224 193.058 22.3261 192.774 22.8799C192.506 23.4106 192.371 24.022 192.371 24.7142Z" fill="#303030"/>
<path d="M174.307 35.2356V19.7649C174.307 19.4649 174.386 19.2342 174.544 19.0727C174.718 18.9112 174.923 18.8304 175.16 18.8304C175.76 18.8304 176.06 19.1419 176.06 19.7649V22.4991C176.849 21.2531 177.804 20.2725 178.925 19.5572C180.046 18.8189 181.182 18.4497 182.335 18.4497C183.819 18.4497 185.058 19.1304 186.052 20.4917C187.063 21.83 187.568 23.5835 187.568 25.7524C187.568 25.9601 187.56 27.0215 187.544 28.9366C187.544 30.8286 187.544 32.9052 187.544 35.1664C187.544 35.4664 187.457 35.7086 187.284 35.8932C187.11 36.0547 186.905 36.1355 186.668 36.1355C186.084 36.1355 185.792 35.8125 185.792 35.1664V26.0639C185.792 24.4257 185.389 23.1682 184.584 22.2914C183.795 21.4146 182.974 20.9762 182.122 20.9762C180.969 20.9762 179.785 21.5415 178.57 22.6721C177.37 23.7797 176.533 25.1871 176.06 26.8946V35.2356C176.06 35.8586 175.76 36.1701 175.16 36.1701C174.923 36.1701 174.718 36.0893 174.544 35.9278C174.386 35.7663 174.307 35.5356 174.307 35.2356Z" fill="#303030"/>
<path d="M158.278 29.0749C158.278 28.8673 158.278 27.8405 158.278 25.9946C158.294 24.1257 158.302 22.0606 158.302 19.7994C158.302 19.4995 158.389 19.2687 158.562 19.1072C158.736 18.9226 158.941 18.8303 159.178 18.8303C159.762 18.8303 160.054 19.1533 160.054 19.7994V28.7634C160.054 30.4016 160.449 31.6822 161.238 32.6052C162.043 33.505 162.872 33.955 163.724 33.955C164.798 33.955 165.942 33.3897 167.158 32.2591C168.389 31.1054 169.242 29.6748 169.715 27.9674V19.7648C169.715 19.1418 170.015 18.8303 170.615 18.8303C170.852 18.8303 171.049 18.9111 171.207 19.0726C171.381 19.2341 171.468 19.4648 171.468 19.7648V35.2009C171.468 35.5009 171.381 35.7316 171.207 35.8931C171.049 36.0546 170.852 36.1354 170.615 36.1354C170.015 36.1354 169.715 35.8239 169.715 35.2009V32.3629C168.926 33.6319 167.979 34.6356 166.874 35.374C165.785 36.1123 164.664 36.4815 163.511 36.4815C162.027 36.4815 160.78 35.7893 159.77 34.4049C158.775 33.0205 158.278 31.2438 158.278 29.0749Z" fill="#303030"/>
<path d="M143.242 31.7401C143.242 31.394 143.328 31.0363 143.502 30.6671C143.691 30.298 143.905 30.1134 144.141 30.1134C144.22 30.1134 144.276 30.1365 144.307 30.1826C144.86 31.0363 145.688 31.8208 146.793 32.5361C147.914 33.2283 148.964 33.5744 149.943 33.5744C152.769 33.5744 154.182 32.2015 154.182 29.4558C154.182 28.5328 153.984 27.783 153.59 27.2061C153.211 26.6062 152.706 26.1563 152.074 25.8563C151.458 25.5564 150.772 25.3026 150.014 25.0949C149.272 24.8872 148.522 24.645 147.764 24.3681C147.007 24.0681 146.312 23.699 145.681 23.2606C145.065 22.8222 144.56 22.153 144.165 21.2532C143.786 20.3533 143.597 19.2573 143.597 17.9652C143.597 16.0271 144.181 14.5388 145.349 13.5005C146.517 12.4391 147.914 11.9084 149.54 11.9084C150.803 11.9084 151.987 12.2199 153.092 12.8429C154.213 13.4428 155.034 14.2965 155.555 15.4041C155.571 15.4502 155.579 15.5079 155.579 15.5771C155.579 15.854 155.444 16.1424 155.176 16.4424C154.923 16.7193 154.695 16.8577 154.489 16.8577C154.458 16.8577 154.363 16.8 154.205 16.6846C152.958 15.1849 151.411 14.435 149.564 14.435C148.443 14.435 147.457 14.7465 146.604 15.3695C145.752 15.9694 145.325 16.8923 145.325 18.1383C145.325 18.992 145.515 19.6957 145.894 20.2495C146.288 20.8033 146.793 21.2186 147.409 21.4955C148.041 21.7493 148.735 21.98 149.493 22.1877C150.251 22.3722 151.008 22.6145 151.766 22.9145C152.524 23.2144 153.211 23.6067 153.826 24.0912C154.458 24.5527 154.963 25.2564 155.342 26.2024C155.736 27.1484 155.934 28.3021 155.934 29.6634C155.934 33.9551 153.992 36.1009 150.109 36.1009C148.846 36.1009 147.606 35.7779 146.391 35.1318C145.175 34.4627 144.181 33.5513 143.407 32.3976C143.297 32.2361 143.242 32.0169 143.242 31.7401Z" fill="#303030"/>
<path d="M132.521 26.9293C132.521 26.5832 132.576 26.2948 132.687 26.0641C132.797 25.8103 132.955 25.6833 133.16 25.6833H140.146C140.351 25.6833 140.509 25.8103 140.62 26.0641C140.746 26.3179 140.809 26.6178 140.809 26.9639C140.809 27.8176 140.588 28.2445 140.146 28.2445H133.16C132.734 28.2445 132.521 27.8061 132.521 26.9293Z" fill="#303030"/>
<path d="M127.919 35.1663V19.7648C127.919 19.1418 128.219 18.8303 128.819 18.8303C129.056 18.8303 129.253 18.9111 129.411 19.0726C129.585 19.2341 129.672 19.4648 129.672 19.7648V35.1663C129.672 35.4663 129.585 35.7085 129.411 35.8931C129.237 36.0546 129.032 36.1354 128.795 36.1354C128.211 36.1354 127.919 35.8124 127.919 35.1663ZM127.919 14.4002V13.7772C127.919 13.1543 128.219 12.8428 128.819 12.8428C129.056 12.8428 129.253 12.9235 129.411 13.085C129.585 13.2466 129.672 13.4773 129.672 13.7772V14.4002C129.672 14.7002 129.585 14.9425 129.411 15.127C129.237 15.2886 129.032 15.3693 128.795 15.3693C128.211 15.3693 127.919 15.0463 127.919 14.4002Z" fill="#303030"/>
<path d="M111.986 35.2357V11.0778C111.986 10.7778 112.065 10.5471 112.223 10.3856C112.397 10.2241 112.602 10.1433 112.839 10.1433C113.439 10.1433 113.739 10.4548 113.739 11.0778V22.5684C114.512 21.3685 115.459 20.4225 116.58 19.7303C117.701 19.0381 118.846 18.692 120.014 18.692C121.514 18.692 122.761 19.3381 123.755 20.6302C124.75 21.8992 125.247 23.6067 125.247 25.7525C125.247 25.9601 125.239 27.0215 125.223 28.9366C125.223 30.8286 125.223 32.9052 125.223 35.1664C125.223 35.4664 125.137 35.7087 124.963 35.8933C124.789 36.0548 124.584 36.1355 124.347 36.1355C123.763 36.1355 123.471 35.8125 123.471 35.1664V26.064C123.471 24.9334 123.25 23.9874 122.808 23.2259C122.382 22.4414 121.908 21.9108 121.387 21.6339C120.866 21.357 120.337 21.2186 119.801 21.2186C118.632 21.2186 117.441 21.7492 116.225 22.8106C115.025 23.872 114.197 25.2333 113.739 26.8946V35.2357C113.739 35.8586 113.439 36.1701 112.839 36.1701C112.602 36.1701 112.397 36.0894 112.223 35.9279C112.065 35.7664 111.986 35.5356 111.986 35.2357Z" fill="#303030"/>
<path d="M97.7762 32.8476C97.7762 32.5477 97.8631 32.2247 98.0367 31.8786C98.2262 31.5325 98.4393 31.3133 98.6761 31.221C98.7866 31.221 98.8418 31.244 98.8418 31.2902C99.347 32.0978 100.073 32.7323 101.02 33.1937C101.968 33.6321 102.71 33.8859 103.246 33.9552C103.799 34.0244 104.312 34.059 104.785 34.059C106.838 34.059 107.864 33.1476 107.864 31.3248C107.864 30.7018 107.706 30.2057 107.39 29.8366C107.09 29.4443 106.672 29.179 106.135 29.0405C105.614 28.9021 105.085 28.8098 104.549 28.7636C104.012 28.7175 103.428 28.6829 102.796 28.6598C102.165 28.6137 101.683 28.5444 101.352 28.4522C100.452 28.1983 99.6548 27.6677 98.9602 26.8601C98.2656 26.0294 97.9183 25.0604 97.9183 23.9528C97.9183 22.1993 98.5182 20.861 99.718 19.9381C100.934 18.992 102.267 18.519 103.72 18.519C104.699 18.519 105.748 18.7729 106.869 19.2805C107.99 19.765 108.827 20.5264 109.379 21.5647C109.395 21.6109 109.403 21.6686 109.403 21.7378C109.403 22.0377 109.308 22.3954 109.119 22.8107C108.929 23.2029 108.748 23.3991 108.574 23.3991C108.416 23.3991 108.258 23.2145 108.101 22.8453C107.343 21.6686 105.835 21.0802 103.578 21.0802C102.646 21.0802 101.762 21.3109 100.926 21.7724C100.089 22.2339 99.6706 22.9145 99.6706 23.8144C99.6706 24.5758 100.034 25.1527 100.76 25.5449C101.486 25.9141 102.26 26.0987 103.08 26.0987C103.665 26.0987 104.154 26.1102 104.549 26.1333C104.943 26.1563 105.425 26.2256 105.993 26.3409C106.561 26.4332 107.035 26.6063 107.414 26.8601C107.793 27.0908 108.164 27.4023 108.527 27.7946C108.89 28.1637 109.158 28.6713 109.332 29.3174C109.521 29.9404 109.616 30.6787 109.616 31.5325C109.616 32.7092 109.363 33.7014 108.858 34.5089C108.369 35.2934 107.801 35.8356 107.153 36.1356C106.522 36.4586 105.851 36.6201 105.141 36.6201C101.81 36.6201 99.4101 35.5818 97.942 33.5052C97.8315 33.3437 97.7762 33.1245 97.7762 32.8476Z" fill="#303030"/>
<path d="M82.2443 29.0749C82.2443 28.8673 82.2443 27.8405 82.2443 25.9946C82.26 24.1257 82.2679 22.0606 82.2679 19.7994C82.2679 19.4995 82.3548 19.2687 82.5284 19.1072C82.7021 18.9226 82.9073 18.8303 83.1441 18.8303C83.7282 18.8303 84.0202 19.1533 84.0202 19.7994V28.7634C84.0202 30.4016 84.4149 31.6822 85.2042 32.6052C86.0093 33.505 86.8381 33.955 87.6906 33.955C88.7641 33.955 89.9086 33.3897 91.1241 32.2591C92.3555 31.1054 93.2079 29.6748 93.6815 27.9674V19.7648C93.6815 19.1418 93.9815 18.8303 94.5814 18.8303C94.8182 18.8303 95.0155 18.9111 95.1733 19.0726C95.347 19.2341 95.4338 19.4648 95.4338 19.7648V35.2009C95.4338 35.5009 95.347 35.7316 95.1733 35.8931C95.0155 36.0546 94.8182 36.1354 94.5814 36.1354C93.9815 36.1354 93.6815 35.8239 93.6815 35.2009V32.3629C92.8922 33.6319 91.945 34.6356 90.84 35.374C89.7507 36.1123 88.6299 36.4815 87.4775 36.4815C85.9935 36.4815 84.7464 35.7893 83.7361 34.4049C82.7415 33.0205 82.2443 31.2438 82.2443 29.0749Z" fill="#303030"/>
<path d="M67.2077 31.7401C67.2077 31.394 67.2945 31.0363 67.4682 30.6671C67.6576 30.298 67.8707 30.1134 68.1075 30.1134C68.1864 30.1134 68.2417 30.1365 68.2733 30.1826C68.8258 31.0363 69.6546 31.8208 70.7596 32.5361C71.8805 33.2283 72.9303 33.5744 73.909 33.5744C76.7348 33.5744 78.1477 32.2015 78.1477 29.4558C78.1477 28.5328 77.9504 27.783 77.5557 27.2061C77.1768 26.6062 76.6717 26.1563 76.0402 25.8563C75.4245 25.5564 74.7378 25.3026 73.9801 25.0949C73.2381 24.8872 72.4882 24.645 71.7305 24.3681C70.9728 24.0681 70.2781 23.699 69.6467 23.2606C69.031 22.8222 68.5259 22.153 68.1312 21.2532C67.7523 20.3533 67.5629 19.2573 67.5629 17.9652C67.5629 16.0271 68.147 14.5388 69.3152 13.5005C70.4834 12.4391 71.8805 11.9084 73.5065 11.9084C74.7694 11.9084 75.9534 12.2199 77.0584 12.8429C78.1793 13.4428 79.0001 14.2965 79.5211 15.4041C79.5369 15.4502 79.5448 15.5079 79.5448 15.5771C79.5448 15.854 79.4106 16.1424 79.1422 16.4424C78.8896 16.7193 78.6607 16.8577 78.4555 16.8577C78.4239 16.8577 78.3292 16.8 78.1714 16.6846C76.9242 15.1849 75.3772 14.435 73.5302 14.435C72.4093 14.435 71.4227 14.7465 70.5702 15.3695C69.7177 15.9694 69.2915 16.8923 69.2915 18.1383C69.2915 18.992 69.4809 19.6957 69.8598 20.2495C70.2545 20.8033 70.7596 21.2186 71.3753 21.4955C72.0068 21.7493 72.7014 21.98 73.4591 22.1877C74.2169 22.3722 74.9746 22.6145 75.7324 22.9145C76.4901 23.2144 77.1768 23.6067 77.7925 24.0912C78.4239 24.5527 78.9291 25.2564 79.308 26.2024C79.7026 27.1484 79.9 28.3021 79.9 29.6634C79.9 33.9551 77.9582 36.1009 74.0748 36.1009C72.8119 36.1009 71.5726 35.7779 70.3571 35.1318C69.1415 34.4627 68.147 33.5513 67.3734 32.3976C67.2629 32.2361 67.2077 32.0169 67.2077 31.7401Z" fill="#303030"/>
<defs>
<linearGradient id="paint0_linear_38_3" x1="28.9425" y1="35.9309" x2="29.2075" y2="16.5938" gradientUnits="userSpaceOnUse">
<stop stop-color="#111411"/>
<stop offset="0.282912" stop-color="#242925"/>
<stop offset="0.367775" stop-color="#313832"/>
<stop offset="1" stop-color="white"/>
</linearGradient>
<linearGradient id="paint1_linear_38_3" x1="29.9353" y1="16.6101" x2="29.9353" y2="36.6343" gradientUnits="userSpaceOnUse">
<stop stop-color="#F8F5F5"/>
<stop offset="0.860577" stop-color="#303030"/>
</linearGradient>
</defs>
</svg>
